<mxfile host="app.diagrams.net" modified="2021-05-04T04:19:48.143Z" agent="5.0 (Windows NT 10.0; Win64; x64) AppleWebKit/537.36 (KHTML, like Gecko) Chrome/89.0.4389.128 Safari/537.36 OPR/75.0.3969.259" etag="j9zJCSwi8AYo71zslorz" version="14.6.9" type="github">
  <diagram id="JFbIX-h2_NPnpkO1fHC8" name="Page-1">
    <mxGraphModel dx="1381" dy="764" grid="1" gridSize="10" guides="1" tooltips="1" connect="1" arrows="1" fold="1" page="1" pageScale="1" pageWidth="850" pageHeight="1100" math="0" shadow="0">
      <root>
        <mxCell id="0" />
        <mxCell id="1" parent="0" />
        <mxCell id="6MYW5iwUGlg7tehctFEd-10" style="edgeStyle=orthogonalEdgeStyle;rounded=0;orthogonalLoop=1;jettySize=auto;html=1;" edge="1" parent="1" source="6MYW5iwUGlg7tehctFEd-1" target="6MYW5iwUGlg7tehctFEd-6">
          <mxGeometry relative="1" as="geometry">
            <Array as="points">
              <mxPoint x="160" y="100" />
              <mxPoint x="160" y="140" />
            </Array>
          </mxGeometry>
        </mxCell>
        <mxCell id="6MYW5iwUGlg7tehctFEd-1" value="" style="points=[[0.015,0.015,0],[0.985,0.015,0],[0.985,0.985,0],[0.015,0.985,0],[0.25,0,0],[0.5,0,0],[0.75,0,0],[1,0.25,0],[1,0.5,0],[1,0.75,0],[0.75,1,0],[0.5,1,0],[0.25,1,0],[0,0.75,0],[0,0.5,0],[0,0.25,0]];verticalLabelPosition=bottom;html=1;verticalAlign=top;aspect=fixed;align=center;pointerEvents=1;shape=mxgraph.cisco19.handheld;fillColor=#005073;strokeColor=none;" vertex="1" parent="1">
          <mxGeometry x="80" y="70" width="45" height="60" as="geometry" />
        </mxCell>
        <mxCell id="6MYW5iwUGlg7tehctFEd-11" style="edgeStyle=orthogonalEdgeStyle;rounded=0;orthogonalLoop=1;jettySize=auto;html=1;startArrow=none;" edge="1" parent="1" source="6MYW5iwUGlg7tehctFEd-20" target="6MYW5iwUGlg7tehctFEd-6">
          <mxGeometry relative="1" as="geometry">
            <Array as="points">
              <mxPoint x="160" y="140" />
            </Array>
          </mxGeometry>
        </mxCell>
        <mxCell id="6MYW5iwUGlg7tehctFEd-2" value="" style="points=[[0.015,0.015,0],[0.985,0.015,0],[0.985,0.985,0],[0.015,0.985,0],[0.25,0,0],[0.5,0,0],[0.75,0,0],[1,0.25,0],[1,0.5,0],[1,0.75,0],[0.75,1,0],[0.5,1,0],[0.25,1,0],[0,0.75,0],[0,0.5,0],[0,0.25,0]];verticalLabelPosition=bottom;html=1;verticalAlign=top;aspect=fixed;align=center;pointerEvents=1;shape=mxgraph.cisco19.handheld;fillColor=#005073;strokeColor=none;" vertex="1" parent="1">
          <mxGeometry x="80" y="180" width="45" height="60" as="geometry" />
        </mxCell>
        <mxCell id="6MYW5iwUGlg7tehctFEd-14" style="edgeStyle=orthogonalEdgeStyle;rounded=0;orthogonalLoop=1;jettySize=auto;html=1;" edge="1" parent="1" source="6MYW5iwUGlg7tehctFEd-3" target="6MYW5iwUGlg7tehctFEd-7">
          <mxGeometry relative="1" as="geometry" />
        </mxCell>
        <mxCell id="6MYW5iwUGlg7tehctFEd-3" value="" style="points=[[0.015,0.015,0],[0.985,0.015,0],[0.985,0.985,0],[0.015,0.985,0],[0.25,0,0],[0.5,0,0],[0.75,0,0],[1,0.25,0],[1,0.5,0],[1,0.75,0],[0.75,1,0],[0.5,1,0],[0.25,1,0],[0,0.75,0],[0,0.5,0],[0,0.25,0]];verticalLabelPosition=bottom;html=1;verticalAlign=top;aspect=fixed;align=center;pointerEvents=1;shape=mxgraph.cisco19.handheld;fillColor=#005073;strokeColor=none;" vertex="1" parent="1">
          <mxGeometry x="80" y="470" width="45" height="60" as="geometry" />
        </mxCell>
        <mxCell id="6MYW5iwUGlg7tehctFEd-13" style="edgeStyle=orthogonalEdgeStyle;rounded=0;orthogonalLoop=1;jettySize=auto;html=1;" edge="1" parent="1" source="6MYW5iwUGlg7tehctFEd-4" target="6MYW5iwUGlg7tehctFEd-7">
          <mxGeometry relative="1" as="geometry" />
        </mxCell>
        <mxCell id="6MYW5iwUGlg7tehctFEd-4" value="" style="points=[[0.015,0.015,0],[0.985,0.015,0],[0.985,0.985,0],[0.015,0.985,0],[0.25,0,0],[0.5,0,0],[0.75,0,0],[1,0.25,0],[1,0.5,0],[1,0.75,0],[0.75,1,0],[0.5,1,0],[0.25,1,0],[0,0.75,0],[0,0.5,0],[0,0.25,0]];verticalLabelPosition=bottom;html=1;verticalAlign=top;aspect=fixed;align=center;pointerEvents=1;shape=mxgraph.cisco19.handheld;fillColor=#005073;strokeColor=none;" vertex="1" parent="1">
          <mxGeometry x="80" y="390" width="45" height="60" as="geometry" />
        </mxCell>
        <mxCell id="6MYW5iwUGlg7tehctFEd-12" style="edgeStyle=orthogonalEdgeStyle;rounded=0;orthogonalLoop=1;jettySize=auto;html=1;entryX=-0.016;entryY=0.556;entryDx=0;entryDy=0;entryPerimeter=0;" edge="1" parent="1" source="6MYW5iwUGlg7tehctFEd-5" target="6MYW5iwUGlg7tehctFEd-8">
          <mxGeometry relative="1" as="geometry" />
        </mxCell>
        <mxCell id="6MYW5iwUGlg7tehctFEd-5" value="" style="points=[[0.015,0.015,0],[0.985,0.015,0],[0.985,0.985,0],[0.015,0.985,0],[0.25,0,0],[0.5,0,0],[0.75,0,0],[1,0.25,0],[1,0.5,0],[1,0.75,0],[0.75,1,0],[0.5,1,0],[0.25,1,0],[0,0.75,0],[0,0.5,0],[0,0.25,0]];verticalLabelPosition=bottom;html=1;verticalAlign=top;aspect=fixed;align=center;pointerEvents=1;shape=mxgraph.cisco19.handheld;fillColor=#005073;strokeColor=none;" vertex="1" parent="1">
          <mxGeometry x="80" y="290" width="45" height="60" as="geometry" />
        </mxCell>
        <mxCell id="6MYW5iwUGlg7tehctFEd-16" style="edgeStyle=orthogonalEdgeStyle;rounded=0;orthogonalLoop=1;jettySize=auto;html=1;entryX=0;entryY=0.5;entryDx=0;entryDy=0;entryPerimeter=0;" edge="1" parent="1" source="6MYW5iwUGlg7tehctFEd-6" target="6MYW5iwUGlg7tehctFEd-15">
          <mxGeometry relative="1" as="geometry" />
        </mxCell>
        <mxCell id="6MYW5iwUGlg7tehctFEd-6" value="web Socket Server 1" style="outlineConnect=0;fontColor=#232F3E;gradientColor=none;fillColor=#232F3E;strokeColor=none;dashed=0;verticalLabelPosition=bottom;verticalAlign=top;align=center;html=1;fontSize=12;fontStyle=0;aspect=fixed;pointerEvents=1;shape=mxgraph.aws4.traditional_server;" vertex="1" parent="1">
          <mxGeometry x="210" y="60" width="62.31" height="108" as="geometry" />
        </mxCell>
        <mxCell id="6MYW5iwUGlg7tehctFEd-17" style="edgeStyle=orthogonalEdgeStyle;rounded=0;orthogonalLoop=1;jettySize=auto;html=1;entryX=0;entryY=0.5;entryDx=0;entryDy=0;entryPerimeter=0;" edge="1" parent="1" source="6MYW5iwUGlg7tehctFEd-7" target="6MYW5iwUGlg7tehctFEd-15">
          <mxGeometry relative="1" as="geometry" />
        </mxCell>
        <mxCell id="6MYW5iwUGlg7tehctFEd-7" value="web Socket Server N&lt;br&gt;" style="outlineConnect=0;fontColor=#232F3E;gradientColor=none;fillColor=#232F3E;strokeColor=none;dashed=0;verticalLabelPosition=bottom;verticalAlign=top;align=center;html=1;fontSize=12;fontStyle=0;aspect=fixed;pointerEvents=1;shape=mxgraph.aws4.traditional_server;" vertex="1" parent="1">
          <mxGeometry x="210" y="430" width="62.31" height="108" as="geometry" />
        </mxCell>
        <mxCell id="6MYW5iwUGlg7tehctFEd-18" style="edgeStyle=orthogonalEdgeStyle;rounded=0;orthogonalLoop=1;jettySize=auto;html=1;entryX=0;entryY=0.5;entryDx=0;entryDy=0;entryPerimeter=0;" edge="1" parent="1" source="6MYW5iwUGlg7tehctFEd-8" target="6MYW5iwUGlg7tehctFEd-15">
          <mxGeometry relative="1" as="geometry" />
        </mxCell>
        <mxCell id="6MYW5iwUGlg7tehctFEd-8" value="web Socket Server 2" style="outlineConnect=0;fontColor=#232F3E;gradientColor=none;fillColor=#232F3E;strokeColor=none;dashed=0;verticalLabelPosition=bottom;verticalAlign=top;align=center;html=1;fontSize=12;fontStyle=0;aspect=fixed;pointerEvents=1;shape=mxgraph.aws4.traditional_server;" vertex="1" parent="1">
          <mxGeometry x="210" y="260" width="62.31" height="108" as="geometry" />
        </mxCell>
        <mxCell id="6MYW5iwUGlg7tehctFEd-38" style="edgeStyle=orthogonalEdgeStyle;rounded=0;orthogonalLoop=1;jettySize=auto;html=1;entryX=0;entryY=0.5;entryDx=0;entryDy=0;" edge="1" parent="1" source="6MYW5iwUGlg7tehctFEd-15" target="6MYW5iwUGlg7tehctFEd-27">
          <mxGeometry relative="1" as="geometry" />
        </mxCell>
        <mxCell id="6MYW5iwUGlg7tehctFEd-15" value="Load Balancer" style="points=[[0.015,0.015,0],[0.985,0.015,0],[0.985,0.985,0],[0.015,0.985,0],[0.25,0,0],[0.5,0,0],[0.75,0,0],[1,0.25,0],[1,0.5,0],[1,0.75,0],[0.75,1,0],[0.5,1,0],[0.25,1,0],[0,0.75,0],[0,0.5,0],[0,0.25,0]];verticalLabelPosition=bottom;html=1;verticalAlign=top;aspect=fixed;align=center;pointerEvents=1;shape=mxgraph.cisco19.rect;prIcon=load_balancer;fillColor=#FAFAFA;strokeColor=#005073;" vertex="1" parent="1">
          <mxGeometry x="361" y="289" width="64" height="50" as="geometry" />
        </mxCell>
        <mxCell id="6MYW5iwUGlg7tehctFEd-19" value="Bi Directional&amp;nbsp;" style="text;html=1;align=center;verticalAlign=middle;resizable=0;points=[];autosize=1;strokeColor=none;" vertex="1" parent="1">
          <mxGeometry x="120" y="320" width="90" height="20" as="geometry" />
        </mxCell>
        <mxCell id="6MYW5iwUGlg7tehctFEd-20" value="Bi Directional&amp;nbsp;" style="text;html=1;align=center;verticalAlign=middle;resizable=0;points=[];autosize=1;strokeColor=none;" vertex="1" parent="1">
          <mxGeometry x="120" y="148" width="90" height="20" as="geometry" />
        </mxCell>
        <mxCell id="6MYW5iwUGlg7tehctFEd-21" value="" style="edgeStyle=orthogonalEdgeStyle;rounded=0;orthogonalLoop=1;jettySize=auto;html=1;endArrow=none;" edge="1" parent="1" source="6MYW5iwUGlg7tehctFEd-2" target="6MYW5iwUGlg7tehctFEd-20">
          <mxGeometry relative="1" as="geometry">
            <mxPoint x="125" y="210" as="sourcePoint" />
            <mxPoint x="210" y="140" as="targetPoint" />
            <Array as="points">
              <mxPoint x="160" y="210" />
            </Array>
          </mxGeometry>
        </mxCell>
        <mxCell id="6MYW5iwUGlg7tehctFEd-22" value="Bi Directional&amp;nbsp;" style="text;html=1;align=center;verticalAlign=middle;resizable=0;points=[];autosize=1;strokeColor=none;" vertex="1" parent="1">
          <mxGeometry x="130" y="460" width="90" height="20" as="geometry" />
        </mxCell>
        <mxCell id="6MYW5iwUGlg7tehctFEd-23" value="Profile Service" style="rounded=1;whiteSpace=wrap;html=1;" vertex="1" parent="1">
          <mxGeometry x="470" y="209" width="110" height="50" as="geometry" />
        </mxCell>
        <mxCell id="6MYW5iwUGlg7tehctFEd-24" value="Message DB" style="shape=cylinder3;whiteSpace=wrap;html=1;boundedLbl=1;backgroundOutline=1;size=15;" vertex="1" parent="1">
          <mxGeometry x="700" y="373" width="60" height="80" as="geometry" />
        </mxCell>
        <mxCell id="6MYW5iwUGlg7tehctFEd-27" value="" style="rounded=1;whiteSpace=wrap;html=1;" vertex="1" parent="1">
          <mxGeometry x="470" y="368" width="110" height="50" as="geometry" />
        </mxCell>
        <mxCell id="6MYW5iwUGlg7tehctFEd-28" value="Profile Service" style="rounded=1;whiteSpace=wrap;html=1;" vertex="1" parent="1">
          <mxGeometry x="480" y="220" width="110" height="50" as="geometry" />
        </mxCell>
        <mxCell id="6MYW5iwUGlg7tehctFEd-29" value="Profile Service" style="rounded=1;whiteSpace=wrap;html=1;" vertex="1" parent="1">
          <mxGeometry x="490" y="230" width="110" height="50" as="geometry" />
        </mxCell>
        <mxCell id="6MYW5iwUGlg7tehctFEd-32" value="" style="rounded=1;whiteSpace=wrap;html=1;" vertex="1" parent="1">
          <mxGeometry x="480" y="378" width="110" height="50" as="geometry" />
        </mxCell>
        <mxCell id="6MYW5iwUGlg7tehctFEd-39" style="edgeStyle=orthogonalEdgeStyle;rounded=0;orthogonalLoop=1;jettySize=auto;html=1;" edge="1" parent="1" source="6MYW5iwUGlg7tehctFEd-33" target="6MYW5iwUGlg7tehctFEd-24">
          <mxGeometry relative="1" as="geometry" />
        </mxCell>
        <mxCell id="6MYW5iwUGlg7tehctFEd-33" value="Message Service" style="rounded=1;whiteSpace=wrap;html=1;" vertex="1" parent="1">
          <mxGeometry x="490" y="388" width="110" height="50" as="geometry" />
        </mxCell>
        <mxCell id="6MYW5iwUGlg7tehctFEd-35" value="Message Service" style="rounded=1;whiteSpace=wrap;html=1;" vertex="1" parent="1">
          <mxGeometry x="470" y="488" width="110" height="50" as="geometry" />
        </mxCell>
        <mxCell id="6MYW5iwUGlg7tehctFEd-36" value="Message Service" style="rounded=1;whiteSpace=wrap;html=1;" vertex="1" parent="1">
          <mxGeometry x="480" y="498" width="110" height="50" as="geometry" />
        </mxCell>
        <mxCell id="6MYW5iwUGlg7tehctFEd-37" value="Image Service" style="rounded=1;whiteSpace=wrap;html=1;" vertex="1" parent="1">
          <mxGeometry x="490" y="508" width="110" height="50" as="geometry" />
        </mxCell>
      </root>
    </mxGraphModel>
  </diagram>
</mxfile>
